<svg xmlns="http://www.w3.org/2000/svg" xml:space="preserve" style="enable-background:new 0 0 500 500" viewBox="0 0 500 500"><path d="M488.891 246.174c-5.179-53.7-32.15-107.275-55.416-136.862-98.61-125.402-296.53-125.157-390.799 32.346-26.59 44.426-43.275 143.194-23.528 216.247 25.271 93.493 124.856 129.907 235.597 129.046 103.469-.804 184.826-45.79 215.288-107.937 19.062-38.888 24.038-79.14 18.858-132.84z" style="fill:#37474f"/><path d="M42.676 141.658C16.086 186.084-.599 284.852 19.148 357.905c4.434 16.405 11.164 31.045 19.833 44.042l.001.001 109.95-63.47 93.7-54.09 220.124-127.07-.001-.004c-9.165-19.032-19.544-35.621-29.279-48.001-98.611-125.403-296.531-125.158-390.8 32.345z" style="fill:#263238"/><path d="m305.541 326.271-.001-12.345-17.818-10.284v-12.345l-17.818-10.284v-12.345l-17.818-10.284-76.975 42.001 19.957 11.49.004 12.342 17.814 10.287.004 12.342 17.814 10.287v12.345l78.065 112.816c77.319-13.065 136.334-52.423 161.262-103.28a201.89 201.89 0 0 0 7.688-17.774v-.001l-172.178-34.968z" style="opacity:.2;fill:#ba68c8"/><path d="M195.781 85.703c-52.1 29.984-94.34 110.393-94.34 179.615 0 41.135 14.917 69.062 37.955 78.663l9.535-5.504 93.7-54.09 9.769-5.639c22.906-36.048 37.721-80.974 37.721-121.972.001-69.222-42.226-101.044-94.34-71.073z" style="opacity:.15;fill:#ba68c8"/><path d="M195.781 105.719c-43.78 25.196-79.276 92.765-79.276 150.933s35.496 84.908 79.276 59.723c43.792-25.185 79.275-92.765 79.275-150.933s-35.483-84.908-79.275-59.723z" style="opacity:.15;fill:#ba68c8"/><path d="M195.781 119.826c-37.781 21.822-68.412 80.341-68.412 130.718 0 50.378 30.632 73.536 68.412 51.724 37.791-21.812 68.412-80.341 68.412-130.718 0-50.378-30.621-73.536-68.412-51.724z" style="opacity:.15;fill:#ba68c8"/><path d="M155.443 252.933c0-43.645 26.538-94.344 59.27-113.25 14.423-8.326 27.635-9.089 37.908-3.614-3.228-1.869-11.168-6.457-13.309-7.694-10.405-6.044-23.985-5.501-38.846 3.079-32.741 18.906-59.279 69.605-59.279 113.25 0 23.889 7.957 40.706 20.52 47.944 2.15 1.237 10.142 5.86 13.405 7.738-12.081-7.51-19.669-24.109-19.669-47.453z" style="fill:#ba68c8"/><path d="M155.443 252.933c0-43.645 26.538-94.344 59.27-113.25 14.423-8.326 27.635-9.089 37.908-3.614-3.228-1.869-11.168-6.457-13.309-7.694-10.405-6.044-23.985-5.501-38.846 3.079-32.741 18.906-59.279 69.605-59.279 113.25 0 23.889 7.957 40.706 20.52 47.944 2.15 1.237 10.142 5.86 13.405 7.738-12.081-7.51-19.669-24.109-19.669-47.453z" style="opacity:.3;fill:#fff"/><path d="M237.97 148.833c5.167 6.896 7.939 17.879 7.325 32.153-1.491 35.03-22.783 76.64-47.549 92.932-7.519 4.948-14.502 6.992-20.529 6.457 7.527 10.027 20.125 11.422 34.785 1.772 24.766-16.291 46.058-57.901 47.549-92.932 1.044-24.38-7.773-39.154-21.581-40.382z" style="fill:#ba68c8"/><path d="M237.97 148.833c5.167 6.896 7.939 17.879 7.325 32.153-1.491 35.03-22.783 76.64-47.549 92.932-7.519 4.948-14.502 6.992-20.529 6.457 7.527 10.027 20.125 11.422 34.785 1.772 24.766-16.291 46.058-57.901 47.549-92.932 1.044-24.38-7.773-39.154-21.581-40.382z" style="opacity:.15"/><path d="m170.537 159.553 14.253 8.229c.378-.514.757-1.027 1.141-1.533l-14.253-8.229c-.384.506-.763 1.019-1.141 1.533zM163.952 207.207l-14.255-8.23c-.201.558-.386 1.12-.58 1.68l14.255 8.23c.194-.56.38-1.122.58-1.68zM228.995 124.739l14.263 8.235c.583.091 1.161.195 1.732.319l-14.26-8.233a30.847 30.847 0 0 0-1.735-.321zM157.446 231.379c.112-.624.234-1.248.355-1.872l-14.256-8.231c-.121.624-.243 1.248-.355 1.872l14.256 8.231zM184.549 143.548l14.252 8.228c.492-.466.982-.934 1.479-1.387l-14.251-8.228c-.498.453-.988.921-1.48 1.387zM157.516 272.523a72.62 72.62 0 0 1-.368-1.677l-.11-.247-14.181-8.188c.129.636.265 1.264.409 1.884l14.25 8.228zM216.574 125.11c-.607.122-1.223.277-1.838.429l14.252 8.228c.62-.153 1.238-.299 1.85-.422l-14.264-8.235zM215.599 139.197l-14.25-8.227c-.295.165-.588.312-.884.483-.289.167-.573.355-.861.526l14.25 8.227c.287-.171.57-.358.858-.525.298-.17.591-.319.887-.484zM158.456 178.982l14.255 8.23c.275-.527.561-1.044.841-1.566l-14.255-8.23c-.28.523-.566 1.04-.841 1.566zM163.573 288.215a46.202 46.202 0 0 1-.93-1.662L148.4 278.33c.305.569.619 1.125.941 1.669l14.232 8.216zM141.188 244.864l14.256 8.231-.002-.162c0-.617.024-1.239.035-1.858l-14.256-8.231c-.011.62-.035 1.243-.035 1.86l.002.16z" style="fill:#ba68c8"/><path d="M214.713 139.681c-32.732 18.906-59.27 69.605-59.27 113.25s26.538 63.709 59.27 44.812c32.74-18.897 59.27-69.605 59.27-113.25s-26.53-63.709-59.27-44.812zm44.838 49.532c-1.491 35.03-22.783 76.64-47.549 92.932-24.757 16.291-43.619 1.097-42.128-33.934 1.5-35.03 22.792-76.641 47.549-92.932 24.766-16.291 43.628-1.096 42.128 33.934z" style="fill:#ba68c8"/><g style="opacity:.15"><path d="M202.579 168.455c.477-.537.954-1.077 1.437-1.598l-3.745-16.472c-.498.454-.992.913-1.485 1.381l3.793 16.689zM213.836 140.197l-.001 17.658a62.598 62.598 0 0 1 1.755-1.304l-.003-17.365a71.25 71.25 0 0 0-1.751 1.011zM225.891 150.835c.641-.25 1.276-.474 1.905-.678l3.029-16.819a42.42 42.42 0 0 0-1.859.415l-3.075 17.082zM177.574 211.615c.203-.558.412-1.113.622-1.668l-14.245-2.743c-.2.557-.398 1.117-.591 1.676l14.214 2.735zM184.302 195.978c.266-.532.53-1.066.802-1.594l-11.565-8.743c-.28.522-.556 1.045-.831 1.571l11.594 8.766zM271.572 163.526l-12.616 11.791a65.2 65.2 0 0 1 .271 2.148l12.814-11.976a68.768 68.768 0 0 0-.469-1.963zM170.297 242.498l-14.839 8.566c-.011.626-.016 1.245-.016 1.868l.001.167 14.653-8.46c.058-.711.129-1.426.201-2.141zM172.701 228.012c.145-.633.307-1.266.462-1.898l-15.376 3.383c-.121.625-.238 1.251-.35 1.875l15.264-3.36zM237.701 148.824a20.33 20.33 0 0 1 1.783.216l5.464-15.77a30.36 30.36 0 0 0-1.746-.325l-5.501 15.879zM255.135 161.941c.286.594.557 1.209.818 1.841l10.298-13.873a45.37 45.37 0 0 0-.972-1.633l-10.144 13.665zM247.856 152.65c.473.358.933.74 1.38 1.146l7.775-14.856a31.07 31.07 0 0 0-1.427-1.057l-7.728 14.767zM192.668 181.442c.361-.546.717-1.096 1.084-1.633l-7.831-13.564c-.384.506-.764 1.016-1.143 1.531l7.89 13.666zM227.154 268.635a97.39 97.39 0 0 1-1.436 1.6l3.755 16.519c.498-.458.987-.939 1.48-1.41l-3.799-16.709zM245.738 240.223c-.261.536-.527 1.069-.794 1.6l11.584 8.758c.276-.525.539-1.059.81-1.588l-11.6-8.77zM237.282 255.204c-.358.55-.72 1.092-1.084 1.633l7.853 13.602c.381-.51.765-1.016 1.141-1.534l-7.91-13.701zM252.418 224.23c-.196.559-.39 1.117-.593 1.674l14.198 2.732c.194-.559.391-1.116.579-1.676l-14.184-2.73zM257.111 207.638c-.135.629-.264 1.257-.409 1.886l15.255-3.357c.112-.623.218-1.245.321-1.867l-15.167 3.338zM273.965 182.645l-14.522 8.384c-.043.702-.089 1.404-.147 2.111l14.684-8.478.003-.168c-.001-.621-.007-1.237-.018-1.849zM215.59 297.209v-17.636c-.583.447-1.167.885-1.755 1.304v17.36c.292-.163.584-.322.878-.492.294-.17.583-.361.877-.536zM173.81 274.44a36.748 36.748 0 0 1-.777-1.896l-10.395 14.003c.305.57.619 1.13.941 1.676l10.231-13.783zM180.94 284.289a20.852 20.852 0 0 1-1.348-1.207l-7.803 14.91c.461.379.933.739 1.41 1.088l7.741-14.791zM203.204 286.728c-.64.243-1.272.455-1.9.652l-3.02 16.77a42.05 42.05 0 0 0 1.856-.403l3.064-17.019zM191.151 288.564a19.95 19.95 0 0 1-1.765-.267l-5.452 15.737a30.84 30.84 0 0 0 1.737.349l5.48-15.819zM170.269 260.606c-.084-.72-.149-1.46-.21-2.204l-12.975 12.127c.136.675.278 1.336.43 1.993l12.755-11.916z"/></g><path d="m230.705 369.478-67.733-39.106v-37.029l14.255 8.23 17.842 10.302v12.345l17.818 10.284v12.345l17.818 10.284z" style="fill:#263238"/><path d="m177.255 301.588 74.831-43.203 17.818 10.284-74.835 43.206z" style="fill:#455a64"/><path d="M195.069 311.875v12.345l74.836-43.207-.001-12.344z" style="fill:#37474f"/><path d="m195.073 324.217 74.831-43.203 17.818 10.284-74.835 43.206z" style="fill:#455a64"/><path d="M212.887 334.504v12.345l74.836-43.207-.001-12.344z" style="fill:#37474f"/><path d="m212.891 346.846 74.832-43.203 17.818 10.284-74.836 43.206z" style="fill:#455a64"/><path d="M230.705 357.133v12.345l74.836-43.207v-12.344z" style="fill:#37474f"/><path d="M252.138 184.984c-1.491 35.03-22.783 76.64-47.549 92.932-9.203 6.053-17.581 7.764-24.415 5.711-7.053-6.387-11.019-18.625-10.299-35.416 1.5-35.03 22.792-76.641 47.549-92.932 9.212-6.062 17.607-7.764 24.442-5.702 7.035 6.395 10.991 18.625 10.272 35.407z" style="fill:#ba68c8"/><path d="M252.138 184.984c-1.491 35.03-22.783 76.64-47.549 92.932-9.203 6.053-17.581 7.764-24.415 5.711-7.053-6.387-11.019-18.625-10.299-35.416 1.5-35.03 22.792-76.641 47.549-92.932 9.212-6.062 17.607-7.764 24.442-5.702 7.035 6.395 10.991 18.625 10.272 35.407z" style="opacity:.9;fill:#fff"/><path d="M204.479 259.996c-7.665.769-14.885 4.641-20.163 10.253-2.862 3.044-5.145 6.584-6.881 10.387a22.956 22.956 0 0 0 2.738 2.992 19.72 19.72 0 0 0 4.516.78c.401-.995.7-2.047 1.052-3.061 3.281-9.43 12.759-16.351 22.74-16.607 3.424-.088 6.827.535 10.241.798a102.951 102.951 0 0 0 3.969-4.638c-6.009-.301-12.24-1.504-18.212-.904zm-1.468-51.202c7.037.907 14.639 1.3 20.762-2.286 6.926-4.057 10.214-12.106 13.561-19.401 3.103-6.762 7.359-13.911 14.149-16.536-1.412-9.469-4.789-16.605-9.617-20.993-3.083-.93-6.485-1.086-10.134-.43-3.398 3.755-5.81 8.544-7.217 13.447-1.605 5.592-2.165 11.541-4.738 16.76-2.562 5.196-7.101 9.387-12.485 11.527-4.277 1.699-8.933 2.113-13.482 2.807-3.143.479-6.317 1.139-9.392 2.06a149.134 149.134 0 0 0-6.339 14.509c1.233-.619 2.503-1.161 3.827-1.57 6.777-2.096 14.067-.801 21.105.106zm7.154-35.036c2.245-3.87 3.038-8.38 4.23-12.693a67.223 67.223 0 0 1 1.521-4.742 66.908 66.908 0 0 0-4.753 3.682c-2.267 5.486-4.46 11.015-8.638 15.135a21.218 21.218 0 0 1-7.448 4.739c-.438.164-1.001.278-1.621.373a131.183 131.183 0 0 0-2.969 4.598c2.775-.204 5.952-.898 6.685-1.137 5.306-1.728 10.194-5.129 12.993-9.955zm42.035 6.071c-2.108 1.102-3.994 2.579-5.245 3.952-3.711 4.075-5.719 9.367-7.947 14.407-3.175 7.183-7.326 14.49-14.242 18.209-4.594 2.471-9.949 3.088-15.163 3.231-9.853.271-19.853-.975-29.487 1.111-2.048.443-4.09 1.1-6.06 1.933a131.169 131.169 0 0 0-1.745 7.151c2.249-1.172 4.592-2.129 7.067-2.756 14.228-3.603 29.964 4.298 43.633-1.051 9.975-3.904 16.091-13.839 20.975-23.372 1.994-3.892 4.146-8.058 7.59-10.583.27-2.382.463-4.745.563-7.077a87.9 87.9 0 0 0 .061-5.155zm-35.505 58.291c-7.693.28-15.385-.436-23.083-.553-3.944-.06-7.952.047-11.724 1.203-3.369 1.032-6.437 2.868-9.32 4.894a55.078 55.078 0 0 0-2.537 1.909 94.882 94.882 0 0 0-.158 2.638c-.435 10.148.851 18.62 3.486 25.155 1.742-1.414 3.159-3.225 4.501-5.039 5.285-7.148 10.385-15.058 18.407-18.888 8.611-4.112 18.761-2.643 28.118-4.515 4.069-.814 7.989-2.303 11.598-4.347a147.317 147.317 0 0 0 4.181-8.482c-.4.244-.805.479-1.214.704-6.746 3.707-14.562 5.041-22.255 5.321z" style="opacity:.1;fill:#ba68c8"/><path d="M269.613 123.374c0 3.397-.648 6.413-4.803 7.143 4.26.18 4.561 3.029 4.803 6.945.132-3.917.502-6.76 4.369-6.945-3.999-.661-4.369-3.746-4.369-7.143zM172.554 304.383c0 3.397-.648 6.413-4.804 7.143 4.26.18 4.561 3.029 4.804 6.945.132-3.917.502-6.76 4.369-6.945-3.999-.662-4.369-3.746-4.369-7.143zM141.281 199.621c0 1.484-.283 2.803-2.099 3.122 1.861.079 1.993 1.323 2.099 3.035.058-1.712.219-2.954 1.909-3.035-1.747-.29-1.909-1.638-1.909-3.122z" style="fill:#ba68c8"/><path d="M133.101 205.468c0 3.397-.648 6.413-4.804 7.143 4.26.18 4.561 3.029 4.804 6.945.132-3.917.502-6.76 4.369-6.945-4-.662-4.369-3.746-4.369-7.143zM129.202 188.431c0 1.744-.333 3.293-2.466 3.668 2.187.092 2.342 1.555 2.466 3.566.068-2.011.258-3.471 2.243-3.566-2.053-.34-2.243-1.924-2.243-3.668zM258.059 113.149c.021 1.989-.05 3.904-2.923 4.351 3.036-.041 2.806 1.873 2.955 4.269.081-2.397.292-4.116 2.658-4.229-2.448-.405-2.384-1.54-2.69-4.391zM283.016 205.697c-.205 3.752-.505 5.377-3.898 5.828 3.457.188 3.742 2.471 3.94 5.667.108-3.196.389-5.516 3.544-5.667-3.263-.54-3.342-2.026-3.586-5.828zM158.773 304.413c-.119 2.184-.294 3.13-2.27 3.393 2.013.109 2.178 1.438 2.294 3.299.063-1.861.226-3.211 2.063-3.299-1.899-.315-1.945-1.18-2.087-3.393zM275.917 119.892c.013 1.204-.03 2.363-1.77 2.633 1.837-.025 1.699 1.134 1.788 2.584.049-1.451.177-2.492 1.609-2.56-1.48-.245-1.441-.931-1.627-2.657zM279.686 216.599c.013 1.204-.03 2.363-1.77 2.633 1.838-.025 1.699 1.134 1.789 2.584.049-1.451.176-2.492 1.609-2.56-1.482-.245-1.443-.932-1.628-2.657zM168.024 299.636c.013 1.204-.03 2.363-1.77 2.633 1.837-.025 1.699 1.134 1.788 2.584.049-1.451.176-2.492 1.609-2.56-1.481-.245-1.441-.931-1.627-2.657z" style="fill:#e0e0e0"/><path d="m205.451 382.997-25.028-14.45-15.436 8.912-27.507-15.881-22.817 13.174 27.506 15.881-58.697 33.889 18.371 10.606 148.184 39.78 24.53-14.162L135.7 423.268l31.497-18.185 47.533 27.443 22.817-13.174-47.532-27.443z" style="fill:#263238"/><path d="m138.66 283.774-1.182.682v-38.427l-14.254-8.229-17.64 10.185 14.551-54.704-14.254-8.229-24.529 14.162-39.643 148.221v21.212l14.254 8.229 44.443-25.659v15.303l14.254 8.229 22.818-13.174v-31.762l15.436-8.912v-28.9l-14.254-8.227zm-38.253 22.085-12.071 6.969 12.071-45.38v38.411z" style="fill:#ba68c8"/><path d="m138.66 283.774-1.182.682v-38.427l-14.254-8.229-17.64 10.185 14.551-54.704-14.254-8.229-24.529 14.162-39.643 148.221v21.212l14.254 8.229 44.443-25.659v15.303l14.254 8.229 22.818-13.174v-31.762l15.436-8.912v-28.9l-14.254-8.227zm-38.253 22.085-12.071 6.969 12.071-45.38v38.411z" style="opacity:.3"/><path d="M137.478 300.915v-54.886l-22.817 13.174v54.886l-31.498 18.184 36.971-138.992-24.529 14.162-39.641 148.221v21.213l58.697-33.889v31.762l22.817-13.173v-31.763l15.436-8.912v-28.899z" style="fill:#ba68c8"/><path d="M137.478 300.915v-54.886l-22.817 13.174v54.886l-31.498 18.184 36.971-138.992-24.529 14.162-39.641 148.221v21.213l58.697-33.889v31.762l22.817-13.173v-31.763l15.436-8.912v-28.899z" style="opacity:.3;fill:#fff"/><path d="m120.134 193.281-14.254-8.23-24.529 14.162 14.254 8.23z" style="fill:#ba68c8"/><path d="m120.134 193.281-14.254-8.23-24.529 14.162 14.254 8.23z" style="opacity:.5;fill:#fff"/><path d="m123.224 237.8 14.254 8.229-22.817 13.174-10.456-6.036 1.379-5.183z" style="fill:#ba68c8"/><path d="m123.224 237.8 14.254 8.229-22.817 13.174-10.456-6.036 1.379-5.183z" style="opacity:.5;fill:#fff"/><path d="m114.661 314.089-14.254-8.23-12.071 6.969-5.173 19.445z" style="fill:#ba68c8"/><path d="m114.661 314.089-14.254-8.23-12.071 6.969-5.173 19.445z" style="opacity:.5;fill:#fff"/><path d="m152.914 292.003-14.254-8.229-1.182.682v16.459z" style="fill:#ba68c8"/><path d="m137.478 300.915 15.436-8.912-14.254-8.229-1.182.682v16.459" style="opacity:.5;fill:#fff"/><path d="m55.964 355.664-14.255-8.229 39.642-148.222 14.254 8.23z" style="fill:#ba68c8"/><path d="m55.964 355.664-14.255-8.229 39.642-148.222 14.254 8.23z" style="opacity:.15"/><path d="m367.246 289.584 31.497-18.185 47.533 27.443 22.817-13.174-47.533-27.443 15.436-8.912-25.028-14.45-15.436 8.912-27.507-15.881-22.818 13.174 27.507 15.881-58.697 33.889 18.37 10.606 148.185 39.78 2.878-1.662a203.014 203.014 0 0 0 3.509-17.397l-120.713-32.581z" style="fill:#263238"/><path d="m370.207 150.09-1.182.682v-38.427l-14.254-8.229-17.64 10.185 14.551-54.704-14.254-8.229-24.53 14.162-39.642 148.222v21.212l14.254 8.229 44.443-25.659v15.303l14.254 8.229 22.818-13.174V196.13l15.436-8.912v-28.9l-14.254-8.228zm-38.253 22.086-12.071 6.969 12.071-45.381v38.412z" style="fill:#ba68c8"/><path d="m370.207 150.09-1.182.682v-38.427l-14.254-8.229-17.64 10.185 14.551-54.704-14.254-8.229-24.53 14.162-39.642 148.222v21.212l14.254 8.229 44.443-25.659v15.303l14.254 8.229 22.818-13.174V196.13l15.436-8.912v-28.9l-14.254-8.228zm-38.253 22.086-12.071 6.969 12.071-45.381v38.412z" style="opacity:.3"/><path d="M369.025 167.231v-54.886l-22.817 13.174v54.886l-31.497 18.185 36.971-138.993-24.53 14.162-39.641 148.222v21.212l58.697-33.888v31.762l22.817-13.174v-31.762l15.436-8.912v-28.9z" style="fill:#ba68c8"/><path d="M369.025 167.231v-54.886l-22.817 13.174v54.886l-31.497 18.185 36.971-138.993-24.53 14.162-39.641 148.222v21.212l58.697-33.888v31.762l22.817-13.174v-31.762l15.436-8.912v-28.9z" style="opacity:.3;fill:#fff"/><path d="m351.682 59.597-14.255-8.229-24.529 14.162 14.254 8.229z" style="fill:#ba68c8"/><path d="m351.682 59.597-14.255-8.229-24.529 14.162 14.254 8.229z" style="opacity:.5;fill:#fff"/><path d="m354.771 104.116 14.254 8.229-22.817 13.174-10.456-6.036 1.379-5.182z" style="fill:#ba68c8"/><path d="m354.771 104.116 14.254 8.229-22.817 13.174-10.456-6.036 1.379-5.182z" style="opacity:.5;fill:#fff"/><path d="m346.208 180.405-14.254-8.229-12.071 6.969-5.172 19.445z" style="fill:#ba68c8"/><path d="m346.208 180.405-14.254-8.229-12.071 6.969-5.172 19.445z" style="opacity:.5;fill:#fff"/><path d="m384.461 158.319-14.254-8.229-1.182.683v16.458z" style="fill:#ba68c8"/><path d="m369.025 167.231 15.436-8.912-14.254-8.229-1.182.683v16.458" style="opacity:.5;fill:#fff"/><path d="m287.511 221.981-14.254-8.229L312.898 65.53l14.254 8.229z" style="fill:#ba68c8"/><path d="m287.511 221.981-14.254-8.229L312.898 65.53l14.254 8.229z" style="opacity:.15"/><path d="M153.367 113.458c.585-2.738-10.586 3.711-11.171 6.45l3.6 9.689c.138.316.352.55.603.705.791.487 3.701 2.128 3.954 2.283.797.488 1.969.182 2.301-.855l4.663-15.991c.289-1.352-3.95-2.281-3.95-2.281z" style="fill:#ba68c8"/><path d="M153.367 113.458c.585-2.738-10.586 3.711-11.171 6.45l3.6 9.689c.138.316.352.55.603.705.791.487 3.701 2.128 3.954 2.283.797.488 1.969.182 2.301-.855l4.663-15.991c.289-1.352-3.95-2.281-3.95-2.281z" style="opacity:.25"/><path d="m191.352 59.956-93.197 53.769c-.828.478-1.5 1.64-1.5 2.596v30.412c0 .956.673 2.116 1.502 2.591l.936.535c.83.475 2.174.472 3.002-.006l93.198-53.829c.828-.478 1.499-1.641 1.499-2.597v-30.35c0-.956-.673-2.116-1.503-2.591l-.936-.535c-.829-.475-2.173-.473-3.001.005z" style="fill:#ba68c8"/><path d="m191.352 59.956-93.197 53.769c-.828.478-1.5 1.64-1.5 2.596v30.412c0 .956.673 2.116 1.502 2.591l.936.535c.83.475 2.174.472 3.002-.006l93.198-53.829c.828-.478 1.499-1.641 1.499-2.597v-30.35c0-.956-.673-2.116-1.503-2.591l-.936-.535c-.829-.475-2.173-.473-3.001.005z" style="opacity:.25"/><path d="M196.793 63.078v.589c0-1.062-1.154-1.725-2.077-1.194l-92.058 53.182a4.017 4.017 0 0 0-1.529 1.552l-4.051-2.337c.277-.479.652-.9 1.079-1.143l93.195-53.771c.831-.479 2.175-.479 3-.006l.935.537c.831.473 1.506 1.633 1.506 2.591z" style="fill:#ba68c8"/><path d="M196.793 63.078v.589c0-1.062-1.154-1.725-2.077-1.194l-92.058 53.182a4.017 4.017 0 0 0-1.529 1.552l-4.051-2.337c.277-.479.652-.9 1.079-1.143l93.195-53.771c.831-.479 2.175-.479 3-.006l.935.537c.831.473 1.506 1.633 1.506 2.591z" style="opacity:.45;fill:#fff"/><path d="M195.407 62.824a.832.832 0 0 0-.419.115l-92.06 53.181a3.598 3.598 0 0 0-1.793 3.106v29.089c0 .283.059.94.608.94.19 0 .416-.073.654-.21l44.718-25.831 2.986 8.28c.574 1.315 2.471 1.219 2.908-.147l4.043-13.873 37.399-21.59c1.245-.716 1.801-1.44 1.801-2.349V63.668c0-.521-.438-.844-.845-.844z" style="fill:#263238"/><path d="M101.744 149.79c-.694 0-1.143-.579-1.143-1.475v-29.089c0-1.467.79-2.835 2.06-3.569l92.059-53.181c.216-.124.447-.187.687-.187.664 0 1.38.528 1.38 1.38v29.865c0 1.455-1.181 2.303-2.069 2.813l-37.212 21.482-3.982 13.667a2.08 2.08 0 0 1-1.89 1.465 2.083 2.083 0 0 1-2.023-1.253l-2.782-7.71-44.163 25.511c-.326.186-.635.281-.922.281zm93.663-86.43a.295.295 0 0 0-.152.044l-92.058 53.18a3.059 3.059 0 0 0-1.525 2.642v29.089c0 .247.057.39.082.417.024-.012.154-.022.376-.151l45.271-26.151 3.203 8.882c.195.445.636.593.975.579.341-.018.762-.213.921-.709l4.098-14.065.187-.107 37.399-21.591c1.35-.776 1.533-1.389 1.533-1.885V63.668c-.001-.231-.213-.308-.31-.308z" style="fill:#ba68c8"/><path d="M109.738 138.014c-.592 0-1.284-.415-1.284-1.586v-14.511c0-.955.411-1.719 1.158-2.15l.34-.197a1.68 1.68 0 0 1 .837-.243c.219 0 .961.071 1.311.979l1.703 4.25v-5.726c0-.955.411-1.719 1.157-2.15l.191-.11c.281-.163.549-.243.817-.243.486 0 1.039.281 1.225 1.032.072-.263.175-.524.306-.785l.55-1.053c.311-.594.716-1.037 1.201-1.319l3.307-1.908c.312-.18.626-.272.934-.272.358 0 .697.123.98.355l.022.017c.092-1.107.744-1.649 1.145-1.88l5.383-3.106c.284-.165.553-.245.82-.245.595 0 1.289.421 1.289 1.606v.25c0 .925-.411 1.671-1.157 2.102l-1.227.708c-.076.045-.205.12-.205.501v12.422c0 .954-.41 1.717-1.154 2.149l-.191.11c-.284.164-.551.244-.819.244-.623 0-1.288-.422-1.288-1.607l-.002-11.703-.496.286c-.288.166-.56.248-.83.248l-.056-.001v11.683a3.9 3.9 0 0 1-.443 1.761l-.55 1.054c-.311.594-.716 1.037-1.202 1.319l-3.288 1.897c-.32.185-.641.279-.954.279-.337 0-.659-.11-.931-.316l-.561-.423a1.713 1.713 0 0 1-.518-.654v1.369c0 .94-.411 1.694-1.158 2.126l-.19.11c-.284.164-.56.246-.842.246-.216 0-.947-.069-1.298-.949l-1.86-4.6v6.155c0 .938-.41 1.693-1.155 2.126l-.19.109c-.286.163-.558.244-.827.244zm10.976-20.393c-.076.045-.204.119-.204.479l.001 9.66 1.535-.886c.077-.045.205-.119.205-.478l-.001-9.661-1.536.886zm15.543 5.083c-.592 0-1.283-.415-1.283-1.586v-14.489c0-.941.412-1.697 1.16-2.127l5.363-3.096c.287-.166.557-.246.824-.246.43 0 .914.219 1.145.788a4.55 4.55 0 0 1 .211-.486l.55-1.054c.313-.595.716-1.038 1.201-1.319l3.307-1.907c.309-.18.625-.272.935-.272.357 0 .695.123.979.353l.516.391c.178.136.376.343.518.653v-1.371c0-.94.411-1.694 1.158-2.126l.191-.11c.283-.163.552-.244.822-.244.592 0 1.284.415 1.284 1.586l.002 11.727 1.535-.886c.077-.045.205-.119.205-.5V93.937c0-.939.411-1.694 1.157-2.126l.192-.111c.281-.163.55-.243.821-.243.395 0 .834.185 1.083.655v-.031c0-1.289.725-1.899 1.157-2.149l.338-.196c.288-.165.561-.245.838-.245.281 0 .971.096 1.311.979l1.704 4.251v-5.727c0-.954.411-1.718 1.157-2.149l.187-.108c.284-.165.553-.245.82-.245.397 0 .838.188 1.088.666v-.019c0-.941.411-1.696 1.157-2.127l4.343-2.507a1.86 1.86 0 0 1 .935-.271c.359 0 .697.123.98.354l.514.388c.33.25.72.743.72 1.677v11.672c0 .587-.15 1.18-.443 1.762l-.551 1.054c-.314.597-.718 1.041-1.204 1.32l-4.341 2.506c-.288.166-.559.247-.825.247-.395 0-.834-.185-1.083-.655v.052c0 .941-.411 1.696-1.157 2.127l-.187.107a1.656 1.656 0 0 1-.845.248c-.216 0-.948-.068-1.298-.946l-1.861-4.602v6.154c0 .941-.411 1.696-1.157 2.127l-.185.107c-.292.167-.561.248-.828.248-.489 0-1.045-.283-1.224-1.039a4.372 4.372 0 0 1-.302.767l-.55 1.053c-.306.605-.712 1.059-1.203 1.342l-3.288 1.898a1.856 1.856 0 0 1-.934.272c-.359 0-.698-.124-.981-.357l-.53-.399a1.72 1.72 0 0 1-.519-.656 3.908 3.908 0 0 1-.443 1.747l-.55 1.052c-.31.593-.714 1.037-1.202 1.32l-3.288 1.897a1.896 1.896 0 0 1-.954.279 1.53 1.53 0 0 1-.931-.315l-.562-.426c-.327-.246-.717-.737-.717-1.674v-2.826a2.235 2.235 0 0 1-.786.749l-3.815 2.202c-.087.05-.205.12-.205.479v4.678c0 .94-.411 1.695-1.157 2.127l-.189.108c-.291.164-.561.245-.83.245zm10.636-20.197c-.086.05-.204.12-.204.479l.001 9.661 1.535-.886c.076-.045.204-.119.204-.478l-.001-9.661-1.535.885zm-3.658 1.864a2.235 2.235 0 0 1-.786.749l-3.815 2.202c-.081.047-.205.12-.205.478l.001 3.12 3.068-1.771c.287-.166.557-.246.824-.246.316 0 .661.118.914.407v-4.939zm29.156-16.539c-.087.049-.205.119-.205.478l.001 9.615 1.535-.886c.076-.044.205-.119.205-.478l-.001-9.615-1.535.886zm14.285 7.778c-.29-.001-1-.105-1.334-1.043l-.944-2.445c-.117-.283-.208-.664-.275-1.152l-.582-4.557c-.03-.376-.041-.582-.041-.669 0-.118.011-.339.037-.662l.582-5.269c.062-.523.147-.975.251-1.348l.95-3.56c.218-.778.63-1.345 1.228-1.69l.342-.198c.29-.168.561-.25.827-.25h.064l.151.017.172.047c.276.106.808.406.808 1.257 0 .238-.034.483-.103.728l-.972 3.381a6.497 6.497 0 0 0-.207 1.069l-.511 5.013a8.29 8.29 0 0 0-.028.49c0 .091.011.246.03.467l.509 4.378c.033.272.089.506.168.689l.969 2.255c.098.233.146.49.146.767 0 .358-.09.706-.268 1.032a2.097 2.097 0 0 1-.8.816l-.346.199a1.63 1.63 0 0 1-.82.239h-.003zm-5.328-2.416c-.587 0-1.272-.404-1.272-1.545v-1.022c0-1.307.723-1.921 1.154-2.171l.363-.208c.283-.162.548-.241.813-.241.626 0 1.294.428 1.294 1.627v1.022c0 .91-.411 1.649-1.157 2.08l-.36.208c-.291.168-.564.25-.835.25zm0-8.335c-.587 0-1.272-.404-1.272-1.545v-1.022c0-1.306.723-1.92 1.154-2.17l.363-.208c.28-.162.546-.241.813-.241.626 0 1.294.427 1.294 1.627v1.022c0 .912-.412 1.651-1.159 2.081l-.359.206c-.29.168-.563.25-.834.25z" style="opacity:.3;fill:#ba68c8"/><path d="M109.738 137.538c-.19 0-.808-.08-.808-1.11v-14.511c0-.997.5-1.495.92-1.738l.34-.196c.207-.119.409-.18.599-.18.182 0 .633.066.867.674l2.615 6.526c.006-.056.008-.116.008-.179v-7.993c0-.997.5-1.496.919-1.738l.189-.108c.208-.121.399-.18.581-.18.191 0 .813.082.813 1.13v14.512c0 .977-.5 1.471-.92 1.714l-.189.108a1.193 1.193 0 0 1-.606.184c-.179 0-.623-.063-.856-.649l-2.768-6.845c-.007.061-.01.127-.01.196v8.38c0 .976-.499 1.47-.918 1.714l-.188.108c-.213.122-.405.181-.588.181zm9.529-5.544c-.232 0-.455-.076-.644-.219l-.562-.424c-.351-.267-.529-.703-.529-1.297v-11.718c0-.512.132-1.033.391-1.547l.548-1.047c.269-.512.611-.891 1.018-1.127l3.306-1.908c.238-.137.472-.208.696-.208.246 0 .481.086.678.247l.53.402c.351.265.53.701.53 1.295v11.718c0 .512-.132 1.033-.392 1.547l-.547 1.048c-.27.514-.613.892-1.019 1.127l-3.287 1.897a1.443 1.443 0 0 1-.717.214zm1.21-14.784c-.19.11-.442.322-.442.89l.002 10.484 2.247-1.298c.191-.11.443-.322.443-.889l-.002-10.485-2.248 1.298zm7.9 9.568c-.244 0-.812-.11-.812-1.131 0 0-.001-12.497-.003-12.527l-1.209.697c-.215.125-.408.185-.592.185-.188 0-.802-.079-.802-1.089v-.25c0-.996.499-1.494.918-1.736l5.383-3.107c.21-.122.401-.181.582-.181.191 0 .813.082.813 1.13v.25c0 .758-.318 1.343-.919 1.691l-1.227.708c-.191.111-.443.324-.443.913v12.422c0 .996-.499 1.495-.917 1.737l-.19.109c-.21.12-.401.179-.582.179zm7.88-4.55c-.19 0-.808-.08-.808-1.11v-14.489c0-.98.501-1.473.921-1.715l5.364-3.097c.213-.123.404-.182.587-.182.19 0 .809.08.809 1.11v.249c0 .978-.5 1.472-.919 1.714l-3.815 2.203c-.19.111-.443.322-.443.889l.002 3.944 3.781-2.182c.213-.123.404-.182.587-.182.19 0 .809.08.809 1.11v.249c0 .978-.5 1.472-.919 1.714l-3.815 2.203c-.206.12-.443.328-.443.89v4.678c0 .979-.5 1.472-.919 1.715l-.187.107c-.217.122-.409.182-.592.182zm9.189-5.348c-.233 0-.455-.075-.644-.218l-.562-.426c-.35-.264-.529-.7-.529-1.295v-11.718c0-.512.132-1.033.391-1.547l.547-1.048c.27-.514.612-.892 1.018-1.128l3.306-1.907c.238-.138.472-.208.697-.208.246 0 .481.086.678.246l.53.401c.351.267.53.702.53 1.295v11.718a3.43 3.43 0 0 1-.392 1.548l-.547 1.047c-.267.512-.61.892-1.018 1.128l-3.288 1.897a1.45 1.45 0 0 1-.717.215zm1.209-14.785c-.205.12-.442.329-.442.89l.002 10.484 2.248-1.298c.19-.11.442-.322.442-.89l-.002-10.485-2.248 1.299zm7.258 9.901c-.248 0-.482-.086-.678-.248l-.546-.412c-.351-.268-.53-.703-.53-1.297V96.936c0-.977.5-1.471.92-1.714l.189-.108c.211-.123.403-.182.585-.182.19 0 .808.08.808 1.11 0 0 .001 12.521.003 12.55l2.247-1.298c.19-.11.443-.323.443-.912V93.937c0-.977.5-1.471.919-1.714l.191-.109c.209-.122.402-.181.585-.181.19 0 .808.08.808 1.11v13.104c0 .51-.132 1.03-.392 1.546l-.547 1.048c-.266.526-.61.915-1.019 1.151l-3.288 1.898c-.24.136-.474.206-.698.206zm7.502-4.293c-.19 0-.808-.08-.808-1.11V92.081c0-.996.5-1.495.919-1.736l.339-.197c.212-.122.407-.181.6-.181.227 0 .641.087.867.674l2.616 6.526a1.59 1.59 0 0 0 .008-.179v-7.993c0-.996.5-1.495.919-1.737l.187-.108c.21-.122.401-.181.582-.181.191 0 .813.082.813 1.131v14.511c0 .978-.5 1.472-.919 1.714l-.187.108a1.195 1.195 0 0 1-.607.184h-.001c-.179 0-.623-.063-.856-.647l-2.768-6.847c-.007.061-.01.127-.01.196v8.38c0 .978-.5 1.472-.919 1.714l-.187.109c-.214.121-.405.181-.588.181zm8.601-4.965c-.19 0-.808-.08-.808-1.11V87.139c0-.978.5-1.472.919-1.714l4.343-2.508c.24-.138.474-.207.697-.207.246 0 .48.085.678.246l.53.4c.352.268.531.704.531 1.297v11.672a3.43 3.43 0 0 1-.392 1.548l-.548 1.048c-.271.515-.614.894-1.02 1.127l-4.342 2.507c-.214.122-.405.183-.588.183zm2.137-15.319c-.206.12-.443.329-.443.89l.002 10.438 2.248-1.297c.191-.111.443-.322.443-.89l-.002-10.438-2.248 1.297zm14.525 7.715c-.235-.001-.663-.095-.887-.726l-.949-2.457c-.104-.252-.187-.598-.248-1.046l-.581-4.553a10.356 10.356 0 0 1-.037-.609c0-.111.011-.32.035-.624l.581-5.255c.059-.493.138-.92.236-1.271l.952-3.566c.182-.651.521-1.12 1.006-1.401l.342-.197c.215-.124.408-.187.589-.187h.088l.172.047c.173.068.458.259.458.798 0 .195-.029.397-.086.6l-.971 3.378a6.99 6.99 0 0 0-.223 1.149l-.511 5.016c-.02.257-.031.44-.031.538s.011.268.032.507l.51 4.392c.039.32.108.597.203.821l.969 2.256c.072.172.107.365.107.579 0 .278-.071.548-.21.805a1.622 1.622 0 0 1-.621.631l-.344.198a1.151 1.151 0 0 1-.581.177zm-5.33-2.416c-.187 0-.797-.077-.797-1.069v-1.022c0-1.014.499-1.517.917-1.759l.361-.207c.207-.119.396-.178.576-.178.246 0 .818.113.818 1.151v1.022c0 .744-.318 1.321-.919 1.668l-.36.207c-.216.126-.411.187-.596.187zm0-8.335c-.187 0-.797-.077-.797-1.069v-1.022c0-1.014.499-1.516.917-1.758l.361-.207c.207-.12.396-.177.576-.177.246 0 .818.112.818 1.151v1.022c0 .744-.318 1.322-.92 1.668l-.359.206c-.216.125-.411.186-.596.186z" style="opacity:.3;fill:#ba68c8"/><path d="m110.275 136.836-.187.108c-.455.262-.682.091-.682-.515v-14.512c0-.621.227-1.063.682-1.325l.34-.196c.375-.216.636-.132.783.252l2.742 6.842c.057.134.128.224.213.271a.238.238 0 0 0 .247 0c.103-.059.185-.169.247-.331.062-.161.094-.364.094-.606v-7.994c0-.621.227-1.062.681-1.325l.187-.107c.454-.262.682-.083.682.537v14.512c0 .605-.228 1.039-.682 1.302l-.187.108c-.375.217-.636.141-.784-.229l-2.896-7.162c-.114-.307-.261-.408-.442-.304-.103.059-.188.18-.256.359-.068.18-.103.392-.103.633v8.38c.002.606-.225 1.039-.679 1.302zM124.412 127.493l-.545 1.042c-.228.434-.506.745-.835.936l-3.288 1.898c-.33.19-.608.199-.835.028l-.562-.425c-.227-.172-.341-.477-.341-.917v-11.718c0-.439.114-.883.341-1.333l.545-1.041c.227-.434.505-.746.834-.936l3.305-1.908c.329-.19.607-.191.835-.005l.545.413c.227.172.341.477.341.916v11.718c.001.439-.113.883-.34 1.332zm-1.209-1.096v-10.401c0-.605-.227-.777-.681-.515l-2.282 1.317c-.455.263-.681.697-.681 1.302v10.401c0 .606.227.778.681.515l2.282-1.317c.453-.262.681-.696.681-1.302zM126.115 111.339l5.383-3.107c.454-.262.681-.082.681.538v.25c0 .59-.227 1.017-.681 1.279l-1.227.709c-.454.262-.681.704-.681 1.324v12.422c0 .621-.227 1.063-.681 1.325l-.188.108c-.455.262-.681.083-.681-.538v-12.422c0-.621-.227-.8-.681-.538l-1.244.718c-.454.263-.681.098-.681-.492v-.25c0-.622.227-1.064.681-1.326zM136.607 105.327l5.365-3.098c.454-.262.681-.091.681.515v.25c0 .606-.227 1.04-.681 1.302l-3.815 2.202c-.455.263-.681.696-.681 1.302v3.86c0 .606.227.778.681.515l3.815-2.203c.454-.262.681-.09.681.515v.249c0 .606-.227 1.04-.681 1.302l-3.815 2.203c-.455.263-.681.697-.681 1.302v4.678c0 .606-.227 1.04-.681 1.302l-.187.108c-.455.263-.682.091-.682-.515v-14.489c0-.604.227-1.038.681-1.3zM150.59 112.379l-.545 1.041c-.227.434-.506.746-.834.936l-3.288 1.897c-.329.19-.608.2-.834.028l-.562-.425c-.227-.171-.341-.476-.341-.916v-11.718c0-.44.114-.883.341-1.333l.545-1.041c.227-.434.505-.746.834-.936l3.305-1.907c.329-.19.607-.191.834-.005l.545.412c.227.172.341.478.341.916v11.718c0 .439-.114.883-.341 1.333zm-1.209-1.096v-10.401c0-.605-.227-.778-.681-.516l-2.283 1.317c-.454.263-.681.697-.681 1.302v10.401c0 .607.227.778.681.515l2.283-1.317c.454-.262.681-.696.681-1.301zM158.511 92.635l.188-.107c.454-.262.681-.09.681.515v13.104c0 .438-.114.883-.341 1.332l-.545 1.041c-.227.45-.506.769-.835.959l-3.288 1.899c-.329.19-.608.191-.835.005l-.562-.426c-.227-.171-.341-.476-.341-.916V96.936c0-.605.227-1.039.682-1.302l.187-.107c.454-.263.681-.09.681.515v12.444c0 .621.227.8.681.539l2.283-1.318c.453-.262.681-.703.681-1.324V93.937c.001-.606.229-1.04.683-1.302zM161.952 107l-.187.109c-.455.262-.682.09-.682-.515V92.081c0-.62.227-1.062.682-1.324l.34-.197c.374-.216.635-.132.783.252l2.742 6.842c.057.135.128.224.213.271a.238.238 0 0 0 .247 0c.102-.059.185-.169.247-.331.062-.16.094-.363.094-.606v-7.994c0-.621.227-1.062.681-1.325l.187-.108c.454-.262.681-.083.681.538v14.512c0 .606-.227 1.04-.681 1.302l-.187.108c-.375.216-.637.14-.784-.229l-2.896-7.162c-.114-.308-.261-.409-.443-.304-.103.059-.188.179-.256.359s-.102.392-.102.633v8.38c.002.607-.225 1.04-.679 1.302zM176.088 97.658l-.545 1.041c-.227.434-.505.746-.834.936l-4.343 2.508c-.454.262-.681.09-.681-.515V87.139c0-.607.227-1.04.681-1.302l4.343-2.508c.329-.19.607-.192.834-.005l.545.412c.227.172.341.478.341.916v11.672c0 .44-.114.884-.341 1.334zm-4.173 1.523 2.282-1.317c.454-.262.681-.696.681-1.301V86.206c0-.606-.227-.778-.681-.516l-2.282 1.317c-.455.263-.681.697-.681 1.302v10.356c0 .607.227.779.681.516zM182.067 83.577l-.358.206c-.454.263-.681.106-.681-.469v-1.022c0-.636.227-1.085.681-1.347l.358-.206c.454-.262.681-.075.681.56v1.022c0 .576-.227.995-.681 1.256zm0 8.335-.358.206c-.454.262-.681.106-.681-.469v-1.022c0-.636.227-1.085.681-1.347l.358-.206c.454-.262.681-.075.681.56v1.022c0 .575-.227.994-.681 1.256zM187.96 93.324c0 .197-.051.389-.152.577a1.142 1.142 0 0 1-.443.448l-.341.196c-.375.217-.636.118-.784-.296l-.954-2.469c-.091-.221-.165-.534-.221-.94l-.579-4.548a9.376 9.376 0 0 1-.034-.549c0-.105.011-.301.034-.587l.579-5.24c.056-.472.13-.87.221-1.195l.954-3.572c.148-.524.409-.894.784-1.111l.341-.196c.192-.111.34-.147.443-.108.102.04.152.158.152.354 0 .151-.023.308-.068.471l-.97 3.376a7.386 7.386 0 0 0-.239 1.228l-.511 5.019a8.693 8.693 0 0 0-.034.587c0 .106.011.289.034.548l.511 4.406c.046.368.125.685.239.952l.97 2.256c.045.111.068.242.068.393z" style="fill:#ba68c8"/><path d="m141.973 102.229-5.365 3.097c-.455.263-.682.696-.682 1.302v14.489c0 .606.227.778.682.515l.187-.108c.454-.262.681-.696.681-1.302v-4.678c0-.605.227-1.04.681-1.302l3.815-2.202c.454-.262.681-.696.681-1.302v-.25c0-.605-.227-.777-.681-.515l-3.815 2.203c-.454.262-.681.091-.681-.515v-3.86c0-.606.227-1.039.681-1.302l3.815-2.202c.454-.262.681-.696.681-1.302v-.249c.001-.608-.227-.779-.68-.517zm-26.35 15.167-.187.108c-.455.263-.681.704-.681 1.325v7.994c0 .242-.031.445-.094.606-.062.162-.145.272-.247.331a.238.238 0 0 1-.247 0c-.085-.046-.156-.136-.213-.271l-2.743-6.842c-.147-.384-.408-.468-.783-.252l-.34.196c-.454.262-.682.704-.682 1.325v14.512c0 .606.227.777.682.515l.187-.108c.454-.262.681-.696.681-1.302v-8.38c0-.241.035-.453.103-.633.068-.18.152-.3.256-.36.181-.104.328-.003.442.304l2.895 7.162c.148.369.409.445.784.229l.187-.107c.454-.263.682-.697.682-1.302v-14.512c0-.62-.228-.8-.682-.538zM150.046 98c-.227-.187-.506-.185-.834.005l-3.305 1.907c-.329.19-.607.503-.834.936l-.545 1.041c-.227.45-.341.893-.341 1.333v11.718c0 .44.114.745.341.916l.562.425c.227.172.505.162.835-.028l3.288-1.897c.329-.19.607-.502.834-.936l.545-1.041c.227-.449.341-.893.341-1.333V99.328c0-.438-.114-.744-.341-.916l-.546-.412zm-.665 13.283c0 .605-.227 1.04-.681 1.301l-2.283 1.318c-.454.263-.681.091-.681-.515v-10.401c0-.605.227-1.039.681-1.302l2.283-1.317c.453-.262.681-.09.681.516v10.4zm-25.514 1.831c-.228-.187-.506-.185-.834.005l-3.305 1.908c-.329.19-.608.503-.834.936l-.545 1.041c-.227.45-.341.894-.341 1.333v11.718c0 .44.114.745.341.917l.562.425c.227.172.505.162.835-.028l3.288-1.898c.329-.19.607-.501.834-.936l.545-1.042c.226-.448.341-.893.341-1.332v-11.718c0-.439-.114-.744-.341-.916l-.546-.413zm-.665 13.283c0 .606-.227 1.04-.681 1.302l-2.282 1.317c-.454.262-.681.091-.681-.515V118.1c0-.605.227-1.04.681-1.302l2.282-1.317c.454-.262.681-.09.681.515v10.401zm8.296-18.166-5.383 3.107c-.454.262-.681.704-.681 1.325v.25c0 .59.227.755.681.492l1.244-.718c.454-.262.681-.083.681.538v12.422c0 .621.227.8.681.538l.188-.108c.453-.262.68-.704.68-1.325V112.33c0-.62.227-1.062.681-1.324l1.227-.709c.454-.262.681-.689.681-1.279v-.25c.001-.619-.226-.799-.68-.537zm27.201-15.704-.188.107c-.454.263-.681.697-.681 1.302v12.446c0 .621-.227 1.062-.681 1.324l-2.283 1.318c-.455.262-.681.083-.681-.539V96.042c0-.605-.227-.778-.681-.515l-.187.107c-.455.262-.682.697-.682 1.302v13.104c0 .44.114.745.341.916l.562.426c.227.187.505.185.834-.005l3.288-1.899c.328-.19.607-.509.834-.959l.545-1.041c.227-.449.341-.893.341-1.332V93.042c0-.605-.228-.777-.681-.515zm23.368-3.454-.358.206c-.454.262-.681.712-.681 1.347v1.022c0 .576.227.732.681.469l.358-.206c.454-.262.681-.681.681-1.256v-1.022c0-.635-.227-.821-.681-.56zm4.854 1.603a3.57 3.57 0 0 1-.239-.952l-.511-4.406a7.116 7.116 0 0 1-.034-.549c0-.105.011-.301.034-.587l.511-5.019c.046-.42.125-.829.239-1.228l.97-3.376a1.77 1.77 0 0 0 .068-.471c0-.196-.051-.314-.153-.354-.102-.039-.251-.003-.443.108l-.341.196c-.375.217-.636.587-.784 1.111l-.954 3.572a8.004 8.004 0 0 0-.221 1.195l-.579 5.24a8.693 8.693 0 0 0-.034.587c0 .077.011.26.034.549l.579 4.548c.056.407.13.719.221.94l.954 2.469c.148.414.409.513.784.296l.341-.196a1.196 1.196 0 0 0 .596-1.025c0-.151-.023-.282-.068-.392l-.97-2.256zm-4.854-9.937-.358.206c-.454.263-.681.712-.681 1.347v1.022c0 .576.227.732.681.469l.358-.206c.454-.262.681-.681.681-1.256v-1.022c0-.636-.227-.822-.681-.56zM167.3 87.561l-.187.108c-.454.262-.681.704-.681 1.325v7.994c0 .243-.031.445-.094.606-.063.162-.145.272-.247.331a.238.238 0 0 1-.247 0c-.085-.046-.156-.136-.213-.271l-2.743-6.842c-.147-.383-.409-.468-.783-.252l-.34.197c-.454.262-.682.704-.682 1.324v14.512c0 .605.227.777.682.515l.187-.109c.454-.262.681-.695.681-1.302v-8.38c0-.241.034-.453.102-.633.068-.18.153-.299.256-.359.182-.105.329-.004.443.304l2.896 7.162c.147.369.409.445.784.229l.187-.108c.454-.262.681-.696.681-1.302V88.099c-.001-.621-.228-.801-.682-.538zm8.243-4.237c-.227-.187-.505-.185-.834.005l-4.343 2.508c-.454.262-.681.695-.681 1.302v14.489c0 .605.227.777.681.515l4.343-2.508c.329-.19.607-.502.834-.936l.546-1.041c.227-.449.341-.893.341-1.333V84.652c0-.438-.114-.744-.341-.916l-.546-.412zm-.664 13.238c0 .605-.227 1.039-.681 1.301l-2.282 1.317c-.455.263-.681.091-.681-.515V88.31c0-.605.227-1.039.681-1.302l2.282-1.317c.454-.262.681-.091.681.516v10.355z" style="opacity:.6;fill:#fff"/><path d="M336.763 378.623c-4.835-2.066-8.312-3.125-12.547-3.75-2.22-.327-4.947-.531-7.969.069-2.058.408-3.917 1.132-5.421 1.879-5.873 2.917-6.721 6.171-6.915 8.922-.2 2.824 1.326 6.423 6.188 9.831l83.38 58.442c15.865-8.54 29.966-18.515 42.033-29.637-36.276-16.862-95.41-44.33-98.749-45.756z" style="fill:#263238"/><path d="M363.454 255.652c5.117 1.003 7.116 1.347 9.568 5.586 2.451 4.239 6.609 20.006 7.747 23.27 1.137 3.264 1.481 4.457 1.011 8.102-.49 3.798-2.73 10.553-3.669 14.252-.435 1.712-.727 3.376-1.044 5.129-.331 1.827-1.123 3.497-1.701 5.263-.267.815-.84 1.578-1.49 2.135-.427.367-1.003.405-1.408.75-.42.357-.505.939-1.067 1.22-.625.313-1.343.116-1.89.438-.572.337-1.054.826-1.689 1.103-.572.249-.995.348-1.43.827-.357.393-.703 1.268-1.347 1.204-.722-.072-.838-.771-.876-1.375-.066-1.065.512-2.411 1.148-3.251.737-.974 1.237-2.107 2.085-2.994.768-.802 1.215-1.988 1.54-3.054.228-.745.158-1.701-.805-1.265-1.135.514-2.336 1.596-3.696 1.362-.941-.162-.993-.903-.444-1.523a27.5 27.5 0 0 0 2.473-3.253c.761-1.164 1.39-2.398 2.181-3.537.411-.592.904-1.155 1.395-1.692 1.373-1.502 1.32-3.551 1.476-5.455.219-2.658.408-9.456.408-9.456-.001.001-6.197-15.272-6.197-15.272l-2.279-18.514z" style="fill:#ffbda7"/><path d="M371.519 298.894c.061-3.158.193-6.307.306-9.458-2.038-4.857-4.14-10.207-6.094-15.269a659.852 659.852 0 0 1 6.3 15.255c-.16 3.159-.3 6.32-.512 9.472z" style="fill:#fff"/><path d="M328.882 374.237c1.759-.618 3.064-.68 3.046.192-.018.872-1.131 3.084-1.131 3.084l-1.398 1.923-.669 1.905s-.819 1.02-.87 1.094c-.05.073-.323-3.542-.323-3.542s-.992-4.205 1.345-4.656z" style="fill:#263238"/><path d="M347.783 299.985s-3.97 4.758-6.371 13.658c-2.914 10.804-4.042 19.114-4.953 25.144-.573 3.788-1.492 8.578-2.853 16.052-1.041 5.719-4.346 23.265-4.346 23.265s1.899 3.153 4.196 4.113c3.302 1.38 6.488.753 6.902-2.195 0 0 2.183-3.479 5.49-12.461 2.079-5.648 3.227-9.73 3.805-12.681.432-2.222.328-6.176.285-8.171l13.285-23.093c1.455-2.529 3.24-4.844 5.239-6.971 1.075-1.143 2.229-2.668 2.874-4.432 2.2-6.02-1.001-14.075-1.001-14.075l-22.552 1.847z" style="fill:#263238"/><path d="M336.459 338.787c-2.139 13.152-4.586 26.252-7.2 39.318 2.303-13.125 4.759-26.218 7.2-39.318z" style="fill:#fff"/><path d="m331.284 388.21-.717-.138c.053-.275 5.373-27.654 9.098-39.148 3.724-11.49 13.468-34.345 13.566-34.575l.672.287c-.098.229-9.829 23.054-13.543 34.513-3.712 11.452-9.024 38.787-9.076 39.061z"/><path d="M365.264 307.688h-21.815a46.825 46.825 0 0 0-2.037 5.955c-2.606 9.662-3.783 17.324-4.655 23.15.531 3.571 1.131 7.233 1.687 9.76 1.465 6.654 2.381 11.355 3.541 14.102 1.158 2.741 3.943 6.632 3.955 6.648 2.017-5.51 3.143-9.518 3.712-12.422.432-2.222.327-6.176.285-8.171l12.973-22.551.93-3.549c3.297-5.373 2.931-9.402 1.424-12.922z"/><path d="M311.041 383.113c-.391-.181-.866 1.351-.906 1.901-.04.55 1.01 2.788 3.728 4.431 2.717 1.643 7.418 2.572 9.18 3.126 1.761.555 3.166 1.957 5.484 3.125 2.06 1.038 5.171 1.529 6.529.922.666-.297.836-.984.991-1.459.369-1.128.344-1.391.207-1.429l-25.213-10.617z" style="fill:#37474f"/><path d="M337.191 391.233c-.183 1.175-.565 2.235-1.13 3.289-.661.702-1.943.76-2.807.71-2.278-.13-3.801-.81-5.91-2.066-1.264-.753-2.644-1.569-4.307-2.065-1.828-.545-4.406-1.125-6.131-1.947-1.473-.701-2.913-1.411-4.105-2.52-1.007-.936-1.929-2.006-1.831-3.314.697-2.204 2.214-2.832 3.699-3.071 1.569-.253 3.283.324 4.83.729 1.917.501 2.577.865 4.631 1.024 1.08.084 2.351.978 3.193.047.994-1.1 1.391-3.702 2.06-4.991.109-.211.253-.436.484-.49.333-.078.615.235.824.507.99 1.288 2.203 2.125 3.655 2.841 3.868 1.909 5.655.904 5.655.904l.357-.798s.77.43-.205 2.227c-.866 1.596-1.246 2.361-2.079 4.629-.759 2.066-.702 3.194-.883 4.355z" style="fill:#455a64"/><path d="M310.969 383.321c1.208-4.477 6.294-3.277 9.575-2.151 1.172.385 2.353.715 3.586.833-1.237-.028-2.459-.299-3.64-.649-3.24-.995-8.112-2.282-9.521 1.967z" style="fill:#fff"/><path d="M320.217 381.175c-1.651.157-2.1 2.825-2.1 2.825s2.469 1.357 4.754 1.544c2.91.239 4.658-1.192 5.351-3.416.693-2.224.053-5.349-.068-6.355-.093-.767.207-1.393.976-1.623-1.551.411-1.911 1.208-1.854 2.401.057 1.193.022 3.572-.506 4.359-.528.788-3.035 1.143-6.553.265z" style="fill:#455a64"/><path d="M361.562 299.985c1.037 1.062 3.618 4.622 4.04 10.102.178 2.32-.482 6.694-3.192 9.984-.829 12.154-3.232 35.563-3.232 35.563 3.212 3.307 4.043 5.44 5.903 11.368 1.129 3.599 5.368 15.169 6.424 18.39-5.627.688-8.688 6.278-8.688 6.278s-9.892-14.619-14.659-23.219c-3.524-6.358-5.162-8.677-6.208-12.44-1.304-4.69-1.655-7.113-2.813-15.022-1.158-7.908-2.27-17.929-2.836-25.714-.567-7.785-1.02-16.037-1.02-16.037l26.281.747z" style="fill:#263238"/><path d="M362.817 391.671c-5.769-8.499-11.422-17.101-16.386-26.103-1.502-2.686-3.173-5.324-4.189-8.251-.954-2.941-1.613-5.967-2.122-9.012-2.681-16.238-4.041-32.642-4.839-49.066l.843 12.302c.758 12.305 2.288 24.556 4.242 36.724.714 4.017 1.451 8.129 3.269 11.81 5.726 10.917 12.359 21.333 19.182 31.596z" style="fill:#fff"/><path d="M348.83 359.461c-2.91-7.425-6.396-47.81-6.223-61.769l-.73-.009c-.058 4.665.293 12.276.896 20.629-2.377-1.197-3.902-3.402-3.902-14.46h-.73c0 11.118 1.451 13.806 4.693 15.297 1.219 16.539 3.393 35.671 5.316 40.578 2.847 7.265 17.715 31.795 17.865 32.042l.625-.379c-.15-.246-14.985-24.722-17.81-31.929z"/><path d="M361.988 390.425c-.892 1.263-1.896 2.159.635 3.832 1.952 1.29 2.071 2.334 2.679 3.708.608 1.374.483 4.154.483 4.154s3.351-5.073 2.371-8.337c-.979-3.265-6.168-3.357-6.168-3.357z" style="fill:#455a64"/><path d="M372.773 387.529c.626.912 2.081 1.693 3.288 2.441.85.526 1.725 1.043 1.978 2.012.028.108-.5.713-.486.823.06.471.005.955-.051 1.429-.195 1.648-1.093 2.862-1.288 4.51-.079.673-.172 1.292-.356 1.936-.207.724-.141 1.597-.189 2.346-.053.821-.106 1.642-.151 2.464-.018.322-.108.733-.039 1.053.074.344-5.509 3.158-7.76 4.237-.13.065-.26.113-.406.17-2.043.685-4.107-.402-4.107-.402-4.484-1.627-4.206-3.252-4.206-3.252s-.14-1.874 2.134-3.139c.286-.159.572-.295.855-.392.016-.007.033-.014.041-.021 1.899-.691 3.486-.177 3.486-.177s.247-.497.307-2.065c.058-1.487.136-1.671.051-3.158-.054-.94-.802-2.55-1.351-3.31-.951-1.317-1.983-2.978-2.633-3.919-.725-.816-.803-3.14 2.935-5.812 3.576-2.556 6.2-2.024 6.708-.956-.003-.001.602 2.252 1.24 3.182z" style="fill:#455a64"/><path d="M358.999 407.297c-.04-3.09 3.939-4.633 6.516-3.729-2.638-.485-6.136.735-6.516 3.729z" style="fill:#fff"/><path d="M363.143 405.195c.317-.757.586-1.112 1.583-1.773.485.053.79.145.79.145-.451.444-2.069 1.072-2.373 1.628z" style="opacity:.1"/><path d="M378.581 392.94c.999.421.171 2.039-1.033 4.449-1.198 2.397-1.432 3.823-1.195 5.997.238 2.175-.274 3.239-1.215 3.995-.941.756-7.917 3.817-7.917 3.817s2.366-2.543 2.749-7.326c.384-4.783.839-7.855 3.219-9.94 2.382-2.086 5.392-.992 5.392-.992z"/><path d="M358.997 407.295c.114.931 2.783 2.831 5.933 2.798 3.249-.034 3.422-.709 3.912-4.404.49-3.694.828-8.816 2.425-11.013 1.597-2.197 3.701-3.496 6.773-2.695.351.171 1.305 1.121.946 2.01 0 0 .009-.702-1.252-1.067-1.081-.313-2.372-.281-4.175 1.275-2.104 1.816-2.575 6.077-2.816 9.739-.24 3.662-1.385 7.176-4.414 7.501-3.029.324-5.372-.569-7.303-2.263-.317-.986-.029-1.881-.029-1.881z" style="fill:#37474f"/><path d="M340.942 232.687c-.91-1.053-.911-2.725-.403-4.021.508-1.296 1.567-2.667 4.662-4.268 3.675-1.902 13.781-3.254 18.78 3.355.721.953-9.224 19.642-8.733 23.519-2.578-2.711-11.091-12.246-11.091-12.246-2.017-.858-3.236-1.587-3.662-3.49-.123-.541-.097-1.927.447-2.849z" style="fill:#263238"/><path d="M344.156 239.027c-2.981-.785-4.904-3.413-3.214-6.34-1.282 3.047.429 5.179 3.214 6.34z" style="fill:#fff"/><path d="M340.942 232.687c-1.264-1.382-.957-3.601 0-5.078 1.039-1.523 2.652-2.471 4.258-3.211a22.26 22.26 0 0 0-2.225 1.467c-2.09 1.442-3.648 4.498-2.033 6.822z" style="fill:#fff"/><path d="M342.457 237.974s-2.722 4.451-2.421 4.813c.301.363 2.017 1.334 2.017 1.334l.404-6.147z" style="fill:#f0997a"/><path d="M342.457 237.974c-.676 1.428-1.492 2.777-2.171 4.196-.082.226-.272.501-.141.663.151.196.374.354.595.493-.273-.149-.718-.262-.783-.626.421-1.732 1.517-3.257 2.5-4.726z" style="fill:#fff"/><path d="M345.841 229.863c-1.827.863-3.411 2.265-3.979 6.275-.148 1.048.67 2.481.298 3.875-1.591 5.97.297 10.947 1.458 12.046.784.741 4.884 1.071 7.035.472 2.691-.75 8.538-3.39 11.327-7.597 3.28-4.95 4.047-11.605.394-14.277-5.14-3.761-14.583-1.716-16.533-.794z" style="fill:#ffbda7"/><path d="M341.862 236.138c-.037 1.366.794 2.697.335 4.082-.848 3.873-.91 8.467 1.422 11.839-2.562-3.263-2.558-8.012-1.582-11.88.462-1.319-.3-2.667-.175-4.041z" style="fill:#fff"/><path d="m359.826 247.755 1.065 7.374c1.645.353 1.802 2.3.984 3.775l.381 2.073-11.246 2.065-1.26-10.311 10.076-4.976z" style="fill:#ffbda7"/><path d="M343.836 252.21c.954.529 3.057.92 5.913.522l-.168-1.459s-1.211.479-2.788.799c-1.567.318-2.94.14-2.957.138z" style="fill:#f0997a"/><path d="M343.138 232.003c-.1 2.6 1.531 3.419 2.692 3.931-.416.752-.642 2.234-.478 3.064.26 1.318.761 2.397 2.058 2.833.794.267 1.028-.083 1.311-.709.403-.89.908-2.256 2.819-1.993 2.192.301 2.769 3.601 1.492 5.762-.563.953-1.495 1.606-2.47 1.662-.873.05-1.491-.704-1.491-.704s.145 2.882 3.848 4.587c0 0 3.737 2.103 7.569.972 1.432-1.706 3.125-3.475 4.874-6.001 4.043-5.839 4.848-16.53-2.039-18.447-.328-.091-6.564-.963-9.605-.303-9.329 2.023-10.563 4.896-10.58 5.346z" style="fill:#263238"/><path d="M360.052 226.234c-.809.602-1.433 1.488-1.593 2.484-.16.996.193 2.089.989 2.708 2.018 1.569 5.122-.253 5.49-2.571.435-2.743-2.87-4.12-4.886-2.621z" style="fill:#ba68c8"/><path d="M361.678 227.105c-2.05 1.255-3.327 4.222-2.233 6.362.298.584.718 1.105.965 1.712.794 1.951-.361 4.097-.609 6.188-.16 1.349.111 3.672.832 4.846.677 1.102 2.18 1.385 2.78 2.549.412.801.128 1.777.289 2.663.347 1.917 2.607 2.836 4.555 2.878 1.652.036 3.436-.383 4.502-1.646.537-.637.858-1.447 1.465-2.018 1.158-1.089 3.034-1.031 4.282-2.016.99-.781 1.414-2.117 1.374-3.377-.04-1.26-.484-2.47-.96-3.637-.831-2.034-.165-3.287.255-5.316.451-2.176-.85-4.582-2.918-5.396-1.416-.558-3.138-.463-4.274-1.476-.619-.552-.957-1.352-1.517-1.964-2.152-2.346-6.38-1.827-8.788-.352z" style="fill:#263238"/><path d="M369.734 261.158c-1.007-3.283-4.343-5.015-5.359-5.31-1.016-.295-3.484-.718-3.484-.718.569 1.303-.394 2.159-2.079 2.551-2.175.506-5.479.564-7.729-.932l-.922-.57s-5.66 1.444-7.261 2.187c-.489.227-3.195 1.14-7.458 10.702-1.823 4.089-1.277 8.245 2.067 11.192.189 2.593-1.484 8.422-1.484 8.422-1.392 8.617-.573 14.744-.573 14.744s2.016 5.296 17.86 5.24c12.272-.043 18.435-5.986 18.435-5.986-.146-3.02-4.864-13.533-4.397-17.065.733-5.181 5.458-14.433 2.384-24.457z" style="fill:#ba68c8"/><path d="M342.9 258.365c3.226 2.623 3.478 6.234 2.974 11.105s-5.376 20.085-6.371 23.396c-.995 3.31-2.435 4.468-4.956 7.143-2.626 2.787-8.405 6.941-11.337 9.384-1.357 1.13-2.57 2.306-3.856 3.539-1.34 1.285-2.962 2.172-4.467 3.263-.695.503-1.607.784-2.46.854-.561.046-1.049-.261-1.581-.219-.55.043-.96.464-1.58.361-.69-.114-1.156-.694-1.787-.755-.661-.063-1.338.05-2.015-.099-.609-.134-1.01-.302-1.643-.17-.519.108-1.313.614-1.797.184-.542-.482-.226-1.116.098-1.627.572-.901 1.83-1.651 2.838-1.958 1.168-.356 2.238-.98 3.445-1.2 1.093-.199 2.15-.896 3.04-1.568.622-.47 1.126-1.284.091-1.497-1.22-.25-2.828-.079-3.792-1.067-.667-.683-.274-1.314.535-1.494a27.534 27.534 0 0 0 3.912-1.182c1.299-.495 2.533-1.125 3.842-1.583.681-.238 1.41-.405 2.122-.551 1.993-.41 3.153-2.1 4.397-3.55 1.737-2.023 4.725-5.826 6.761-8.566l3.068-14.851c1.935-8.102 2.648-14.859 10.519-17.292z" style="fill:#ffbda7"/><path d="M345.878 269.467c-.27 2.55-1.73 7.95-3.21 12.98-.1.35-.21.69-.31 1.03-1.23 4.17-2.42 7.93-2.86 9.39-.9 3.01-2.17 4.24-4.28 6.44-.22.23-.44.45-.67.7-2.63 2.79-8.41 6.94-11.34 9.39-1.35 1.13-2.57 2.3-3.85 3.53-1.34 1.29-2.97 2.18-4.47 3.27-.7.5-1.61.78-2.46.85-.56.05-1.05-.26-1.58-.22-.55.04-.96.46-1.58.36-.69-.11-1.16-.69-1.79-.75-.66-.07-1.34.05-2.01-.1-.61-.14-1.01-.3-1.65-.17-.16.04-.35.11-.55.18-.08.03-.17.06-.25.08-.11.04-.23.07-.35.08-.24.03-.46 0-.64-.16-.55-.48-.23-1.11.09-1.62.58-.9 1.83-1.66 2.84-1.96 1.17-.36 2.24-.98 3.45-1.2 1.09-.2 2.15-.9 3.04-1.57.62-.47 1.12-1.28.09-1.5-1.22-.25-2.83-.08-3.79-1.06-.67-.69-.28-1.32.53-1.5 1.36-.3 2.61-.68 3.91-1.18 1.3-.5 2.54-1.13 3.84-1.58.69-.24 1.42-.41 2.13-.55 1.99-.41 3.15-2.11 4.39-3.55 1.74-2.03 4.73-5.83 6.77-8.57l3.06-14.85c1.94-8.1 2.65-14.86 10.52-17.29.88.72 1.55 1.51 2.03 2.38 1.28 2.31 1.31 5.18.95 8.72z" style="fill:#ffbda7"/><path d="M302.025 316.35c-.468-.346-.34-1.002-.084-1.443.751-1.445 2.376-2.067 3.819-2.559.946-.377 1.938-.806 2.959-.954.984-.257 1.876-.816 2.727-1.397-.797.654-1.656 1.278-2.677 1.583-1.744.476-4.215 1.295-5.696 2.278-.666.534-1.817 1.639-1.048 2.492zM307.745 307.433c-1.246-1.424 1.156-1.605 2.06-1.907 2.375-.605 4.473-1.919 6.82-2.577 1.172-.34 2.418-.478 3.36-1.265 1.637-1.291 3.385-3.885 4.732-5.51l4.504-5.736c1.015-5.009 2.589-12.783 3.782-17.871 1.265-6.041 3.213-12.412 9.897-14.203-6.584 1.864-8.499 8.239-9.725 14.242-1.194 5.159-2.63 12.719-3.769 17.969l-4.539 5.721c-1.383 1.644-3.099 4.187-4.788 5.512-.979.807-2.271.946-3.414 1.272-2.333.649-4.47 1.929-6.846 2.497-.911.295-3.292.425-2.074 1.856z" style="fill:#fff"/><path d="M365.51 323.414c.015.384.088.78.305 1.095.215-.261.393-.583.573-.781.435-.479.858-.578 1.43-.827.635-.277 1.117-.766 1.689-1.103.547-.322 1.265-.125 1.89-.438.562-.281.647-.862 1.067-1.22.406-.345.981-.383 1.409-.75.649-.557 1.223-1.32 1.49-2.135.578-1.766 1.371-3.436 1.701-5.263.317-1.753.61-3.417 1.044-5.129.94-3.699 3.18-10.454 3.67-14.252.47-3.645.127-4.838-1.011-8.102-1.138-3.264-5.295-19.031-7.747-23.27-2.325-4.021-4.249-4.539-8.808-5.437-.085-.02-.175-.046-.276-.074-.14-.03-.3-.07-.46-.1-.12-.03-.24-.05-.36-.08l-.46-.09c-.09-.02-.18-.03-.27-.05-.24-.05-.46-.09-.66-.13-.2-.03-.37-.06-.5-.09-.05-.01-.09-.02-.13-.02-.13-.03-.21-.04-.21-.04l-.53-3.69.13-.03c.81-.96 1.7-1.95 2.63-3.07.11.13.21.27.29.43.42.8.13 1.77.29 2.66.35 1.92 2.61 2.83 4.56 2.88 1.65.03 3.43-.39 4.5-1.65.54-.64.86-1.45 1.46-2.02 1.16-1.09 3.04-1.03 4.29-2.01.99-.78 1.41-2.12 1.37-3.38-.04-1.26-.48-2.47-.96-3.64-.83-2.03-.17-3.29.25-5.31.45-2.18-.85-4.59-2.91-5.4-1.42-.56-3.14-.46-4.28-1.48-.62-.55-.95-1.35-1.51-1.96-1.6-1.75-4.35-1.9-6.65-1.26a3.21 3.21 0 0 0-1.94-.57c-3.12-2.42-7.19-2.99-10.68-2.72-1.31.52-2.48 1.38-3.49 2.39-3.14 3.11-5.04 7.68-4.18 12.02.16.81.41 1.59.54 2.4.33 2.07-.13 4.18-.12 6.28.01 2.09.67 4.42 2.49 5.45 1.38.77 3.07.62 4.64.82 2.58.33 2.28 1.92 2.38 4.11.02.33.03.67-.08.97-.04.12-.1.22-.18.32-.67.83-2.57 1.16-3.41 1.44-1.56.51-3.38.84-4.86 1.64-.71.38-1.34.87-1.82 1.55-1.91 2.68-2.72 5.87-3.53 9.01-.75 2.9-1.54 5.8-2.37 8.68-.75 2.61-1.53 5.21-2.34 7.8-.73 2.33-1.5 4.67-2.82 6.71-1.55 2.37-3.77 4.21-5.77 6.23-4.53 4.58-8.32 10.44-14.38 12.64-2.33.84-4.83 1.07-7.22 1.71-.83.22-1.77.66-2.01 1.43.12-.01.24-.04.35-.08.09-.02.17-.05.25-.08.2-.07.39-.14.55-.18.64-.13 1.04.03 1.65.17.67.15 1.35.03 2.01.1.63.06 1.1.64 1.79.75.62.1 1.03-.32 1.58-.36.53-.04 1.02.27 1.58.22.85-.07 1.76-.35 2.46-.85 1.5-1.09 3.13-1.98 4.47-3.27 1.28-1.23 2.5-2.4 3.85-3.53 2.93-2.45 8.71-6.6 11.34-9.39.23-.25.45-.47.67-.7l.01-.01c2.1-2.19 3.37-3.42 4.27-6.43.44-1.46 1.63-5.22 2.86-9.39.14-.47.25-.83.31-1.03.51.46.63 1.28.68 2 .37 4.86 1.53 9.78 2.32 14.62.56 3.45 1.13 6.9 1.39 10.38.2 2.52.23 5.04.27 7.56l.24 18.01c.02 1.02.03 2.04.05 3.06.04 3.11.18 5.39.58 8.47.33 2.47.86 4.92 1.61 7.3.18.58.37 1.16.58 1.74 2.07 5.75 5.32 10.96 8.45 16.18 3.26 5.46 5.89 11.37 8.49 17.19.47 1.05.94 2.11 1.12 3.24.32 1.94-.21 3.91-.36 5.87-.15 1.91.07 3.84.02 5.76-.06 1.91-.43 3.91-1.6 5.43-.77 1.01-1.87 1.73-3.09 2.09.9.16 1.86.2 2.91.09.6-.06 1.12-.25 1.57-.54 1.78-.79 6.48-2.91 7.24-3.52.94-.75 1.45-1.82 1.22-3.99-.24-2.18-.01-3.6 1.19-6 .76-1.52 1.36-2.72 1.46-3.51.25-.85-.63-1.73-.97-1.9-.25-.97-1.13-1.48-1.98-2.01-1.2-.75-2.66-1.53-3.28-2.44-.64-.93-1.25-3.18-1.25-3.18-.1-.22-.3-.41-.57-.57-1.54-4.43-4.89-13.64-5.88-16.77-1.86-5.93-2.69-8.07-5.9-11.37 0 0 1.77-17.28 2.8-29.85l1.24-2.17c.13-.23.26-.45.4-.67 1.38-2.27 3.02-4.37 4.84-6.3.181-.192.363-.409.544-.622-.274.452-.537.909-.836 1.349-1.258 1.853-2.741 3.8-2.654 6.039zm6.118-20.626c.07-.07.12-.11.12-.11-.02-.47-.16-1.13-.37-1.92-.23-.85-.55-1.86-.9-2.95-.11-.34-.23-.69-.35-1.04-.41-1.22-.85-2.52-1.25-3.78-.13-.39-.25-.78-.36-1.16-.14-.42-.26-.84-.37-1.24-.08-.29-.16-.57-.23-.85-.02-.09-.05-.19-.07-.28-.05-.19-.09-.37-.13-.54-.08-.33-.15-.64-.2-.94l-.06-.33c-.01-.08-.03-.15-.03-.23-.03-.15-.05-.3-.06-.44l-.03-.3c-.02-.19-.02-.37-.02-.54 0-.19.01-.36.03-.52.18-1.29.61-2.84 1.11-4.59.327-1.153.681-2.398 1.013-3.713a367.777 367.777 0 0 1 2.788 5.315c.738 1.428 1.48 2.864 1.967 4.395 1.103 3.468.838 7.21.411 10.824-.487 4.121-1.31 8.214-2.72 12.079.387-2.456.129-5.031-.289-7.14z" style="opacity:.3"/></svg>